C:\Users\Nicos\Documents\OpenSimProjects\SprintingProject\Study1\PredictiveResults\IC_pred_Sprinting_optimum_26-October-2023__20-13-02_p02_maxVel_01___IKTD_Plus_6_GRF.mot
version=1
nRows=6
nColumns=127
inDegrees=yes
endheader
time	ground_force_vx	ground_force_vy	ground_force_vz	ground_force_px	ground_force_py	ground_force_pz	ground_torque_x	ground_torque_y	ground_torque_z	1_ground_force_vx	1_ground_force_vy	1_ground_force_vz	1_ground_force_px	1_ground_force_py	1_ground_force_pz	1_ground_torque_x	1_ground_torque_y	1_ground_torque_z	2_ground_force_vx	2_ground_force_vy	2_ground_force_vz	2_ground_force_px	2_ground_force_py	2_ground_force_pz	2_ground_torque_x	2_ground_torque_y	2_ground_torque_z	3_ground_force_vx	3_ground_force_vy	3_ground_force_vz	3_ground_force_px	3_ground_force_py	3_ground_force_pz	3_ground_torque_x	3_ground_torque_y	3_ground_torque_z	4_ground_force_vx	4_ground_force_vy	4_ground_force_vz	4_ground_force_px	4_ground_force_py	4_ground_force_pz	4_ground_torque_x	4_ground_torque_y	4_ground_torque_z	5_ground_force_vx	5_ground_force_vy	5_ground_force_vz	5_ground_force_px	5_ground_force_py	5_ground_force_pz	5_ground_torque_x	5_ground_torque_y	5_ground_torque_z	6_ground_force_vx	6_ground_force_vy	6_ground_force_vz	6_ground_force_px	6_ground_force_py	6_ground_force_pz	6_ground_torque_x	6_ground_torque_y	6_ground_torque_z	7_ground_force_vx	7_ground_force_vy	7_ground_force_vz	7_ground_force_px	7_ground_force_py	7_ground_force_pz	7_ground_torque_x	7_ground_torque_y	7_ground_torque_z	8_ground_force_vx	8_ground_force_vy	8_ground_force_vz	8_ground_force_px	8_ground_force_py	8_ground_force_pz	8_ground_torque_x	8_ground_torque_y	8_ground_torque_z	9_ground_force_vx	9_ground_force_vy	9_ground_force_vz	9_ground_force_px	9_ground_force_py	9_ground_force_pz	9_ground_torque_x	9_ground_torque_y	9_ground_torque_z	10_ground_force_vx	10_ground_force_vy	10_ground_force_vz	10_ground_force_px	10_ground_force_py	10_ground_force_pz	10_ground_torque_x	10_ground_torque_y	10_ground_torque_z	11_ground_force_vx	11_ground_force_vy	11_ground_force_vz	11_ground_force_px	11_ground_force_py	11_ground_force_pz	11_ground_torque_x	11_ground_torque_y	11_ground_torque_z	12_ground_force_vx	12_ground_force_vy	12_ground_force_vz	12_ground_force_px	12_ground_force_py	12_ground_force_pz	12_ground_torque_x	12_ground_torque_y	12_ground_torque_z	13_ground_force_vx	13_ground_force_vy	13_ground_force_vz	13_ground_force_px	13_ground_force_py	13_ground_force_pz	13_ground_torque_x	13_ground_torque_y	13_ground_torque_z
0.106766	309.400832	799.568875	-107.921282	0.422126	-0.018423	0.416516	0.000000	0.000000	0.000000	143.252488	383.512445	24.635891	0.377258	-0.012147	0.433737	0.000000	0.000000	0.000000	72.508708	269.582419	40.087475	0.345451	-0.010259	0.420405	0.000000	0.000000	0.000000	118.522937	383.781438	2.297759	0.350340	-0.012916	0.398857	0.000000	0.000000	0.000000	-0.075368	0.244880	0.062151	0.261239	0.004680	0.441391	0.000000	0.000000	0.000000	-30.627218	132.173559	31.512426	0.317501	-0.006630	0.412275	0.000000	0.000000	0.000000	-0.003330	0.008698	0.002417	0.205700	0.007885	0.379751	0.000000	0.000000	0.000000	-0.000000	0.000000	-0.000000	0.351197	0.218613	0.128614	0.000000	0.000000	0.000000	-0.000000	0.000000	-0.000000	0.353365	0.242386	0.114404	0.000000	0.000000	0.000000	-0.000000	0.000000	0.000000	0.348164	0.256554	0.125698	0.000000	0.000000	0.000000	-0.000000	0.000000	0.000000	0.339797	0.252857	0.145492	0.000000	0.000000	0.000000	-0.000000	0.000000	0.000000	0.351003	0.301653	0.108928	0.000000	0.000000	0.000000	-0.000000	0.000000	0.000000	0.343016	0.270721	0.134107	0.000000	0.000000	0.000000	-0.000000	0.000000	0.000000	0.322422	0.327388	0.167743	0.000000	0.000000	0.000000
0.108812	359.351991	824.881461	-88.781962	0.421350	-0.018893	0.416775	0.000000	0.000000	0.000000	139.288598	346.780261	34.709162	0.377060	-0.011478	0.433679	0.000000	0.000000	0.000000	44.174309	204.362938	43.910080	0.345899	-0.008667	0.420378	0.000000	0.000000	0.000000	95.000264	311.153410	0.228774	0.350648	-0.011438	0.398855	0.000000	0.000000	0.000000	-0.002559	0.007543	0.001862	0.263041	0.008193	0.440930	0.000000	0.000000	0.000000	-19.178727	71.997898	15.379860	0.318354	-0.004402	0.412104	0.000000	0.000000	0.000000	-0.000022	0.000052	0.000014	0.208170	0.012658	0.379006	0.000000	0.000000	0.000000	-0.000000	0.000000	-0.000000	0.391278	0.214936	0.127016	0.000000	0.000000	0.000000	-0.000000	0.000000	-0.000000	0.391813	0.238681	0.112472	0.000000	0.000000	0.000000	-0.000000	0.000000	0.000000	0.384855	0.252930	0.123793	0.000000	0.000000	0.000000	-0.000000	0.000000	0.000000	0.376512	0.249139	0.143527	0.000000	0.000000	0.000000	-0.000000	0.000000	0.000000	0.385077	0.298021	0.106707	0.000000	0.000000	0.000000	-0.000000	0.000000	0.000000	0.378743	0.267025	0.132039	0.000000	0.000000	0.000000	-0.000000	0.000000	0.000000	0.354297	0.323404	0.165021	0.000000	0.000000	0.000000
0.110295	387.226385	835.180346	-79.470232	0.420613	-0.019174	0.416959	0.000000	0.000000	0.000000	131.836987	315.605146	35.189340	0.376849	-0.010886	0.433608	0.000000	0.000000	0.000000	26.730174	157.930835	40.093610	0.346303	-0.007364	0.420357	0.000000	0.000000	0.000000	77.706999	257.868185	11.736652	0.350943	-0.010217	0.398854	0.000000	0.000000	0.000000	-0.000148	0.000408	0.000099	0.264596	0.010940	0.440571	0.000000	0.000000	0.000000	-10.018956	35.679211	7.314488	0.319108	-0.002619	0.411970	0.000000	0.000000	0.000000	-0.000000	0.000001	0.000000	0.210327	0.016363	0.378423	0.000000	0.000000	0.000000	-0.000000	0.000000	-0.000000	0.420491	0.212232	0.126007	0.000000	0.000000	0.000000	-0.000000	0.000000	-0.000000	0.419829	0.235937	0.111202	0.000000	0.000000	0.000000	-0.000000	0.000000	0.000000	0.411584	0.250215	0.122515	0.000000	0.000000	0.000000	-0.000000	0.000000	0.000000	0.403271	0.246356	0.142208	0.000000	0.000000	0.000000	-0.000000	0.000000	0.000000	0.409869	0.295273	0.105173	0.000000	0.000000	0.000000	-0.000000	0.000000	0.000000	0.404768	0.264247	0.130635	0.000000	0.000000	0.000000	-0.000000	0.000000	0.000000	0.377507	0.320376	0.163116	0.000000	0.000000	0.000000
0.110943	396.395516	836.984603	-75.236110	0.420254	-0.019272	0.417037	0.000000	0.000000	0.000000	127.103239	300.857760	34.020073	0.376750	-0.010593	0.433572	0.000000	0.000000	0.000000	24.483990	138.375109	34.734270	0.346501	-0.006757	0.420347	0.000000	0.000000	0.000000	68.712656	234.921317	21.720747	0.351090	-0.009646	0.398852	0.000000	0.000000	0.000000	-0.000039	0.000105	0.000025	0.265346	0.012192	0.440409	0.000000	0.000000	0.000000	-6.403067	22.813566	4.763355	0.319475	-0.001797	0.411909	0.000000	0.000000	0.000000	-0.000000	0.000000	0.000000	0.211373	0.018046	0.378160	0.000000	0.000000	0.000000	-0.000000	0.000000	-0.000000	0.433291	0.211044	0.125605	0.000000	0.000000	0.000000	-0.000000	0.000000	-0.000000	0.432105	0.234725	0.110682	0.000000	0.000000	0.000000	-0.000000	0.000000	0.000000	0.423296	0.249007	0.121984	0.000000	0.000000	0.000000	-0.000000	0.000000	0.000000	0.415000	0.245119	0.141661	0.000000	0.000000	0.000000	-0.000000	0.000000	0.000000	0.420726	0.294044	0.104526	0.000000	0.000000	0.000000	-0.000000	0.000000	0.000000	0.416172	0.263009	0.130048	0.000000	0.000000	0.000000	-0.000000	0.000000	0.000000	0.387677	0.319017	0.162305	0.000000	0.000000	0.000000
0.112989	431.386917	837.361686	-52.031171	0.418946	-0.019482	0.417253	0.000000	0.000000	0.000000	111.650535	251.678133	34.136368	0.376403	-0.009536	0.433427	0.000000	0.000000	0.000000	9.866211	80.557158	22.968964	0.347214	-0.004692	0.420297	0.000000	0.000000	0.000000	41.169025	164.054713	29.779915	0.351627	-0.007695	0.398827	0.000000	0.000000	0.000000	-0.000000	0.000001	0.000000	0.268030	0.016350	0.439881	0.000000	0.000000	0.000000	-1.174251	3.975450	0.811667	0.320797	0.000969	0.411699	0.000000	0.000000	0.000000	-0.000000	0.000000	0.000000	0.215129	0.023616	0.377308	0.000000	0.000000	0.000000	-0.000000	0.000000	-0.000000	0.473901	0.207265	0.124490	0.000000	0.000000	0.000000	-0.000000	0.000000	-0.000000	0.471054	0.230850	0.109186	0.000000	0.000000	0.000000	-0.000000	0.000000	0.000000	0.460466	0.245112	0.120426	0.000000	0.000000	0.000000	-0.000000	0.000000	0.000000	0.452235	0.241128	0.140053	0.000000	0.000000	0.000000	-0.000000	0.000000	0.000000	0.455165	0.290052	0.102586	0.000000	0.000000	0.000000	-0.000000	0.000000	0.000000	0.452366	0.259007	0.128310	0.000000	0.000000	0.000000	-0.000000	0.000000	0.000000	0.419966	0.314585	0.159847	0.000000	0.000000	0.000000
0.114472	457.470512	830.238729	-31.519188	0.417814	-0.019537	0.417367	0.000000	0.000000	0.000000	98.913728	213.598313	34.414663	0.376114	-0.008637	0.433277	0.000000	0.000000	0.000000	-1.398990	44.288767	13.660506	0.347847	-0.003045	0.420255	0.000000	0.000000	0.000000	19.432238	115.599931	29.755734	0.352117	-0.006129	0.398802	0.000000	0.000000	0.000000	-0.000000	0.000000	0.000000	0.270315	0.019556	0.439498	0.000000	0.000000	0.000000	-0.306440	0.953283	0.172539	0.321943	0.003141	0.411542	0.000000	0.000000	0.000000	-0.000000	0.000000	0.000000	0.218325	0.027883	0.376690	0.000000	0.000000	0.000000	-0.000000	0.000000	-0.000000	0.503485	0.204510	0.123826	0.000000	0.000000	0.000000	-0.000000	0.000000	-0.000000	0.499437	0.228005	0.108241	0.000000	0.000000	0.000000	-0.000000	0.000000	0.000000	0.487571	0.242220	0.119413	0.000000	0.000000	0.000000	-0.000000	0.000000	0.000000	0.479398	0.238166	0.139007	0.000000	0.000000	0.000000	-0.000000	0.000000	0.000000	0.480266	0.287061	0.101285	0.000000	0.000000	0.000000	-0.000000	0.000000	0.000000	0.478763	0.256025	0.127164	0.000000	0.000000	0.000000	-0.000000	0.000000	0.000000	0.443533	0.311246	0.158172	0.000000	0.000000	0.000000
